<svg width="167" height="199" xmlns="http://www.w3.org/2000/svg">

 <g>
  <title>Layer 1</title>
  <path stroke-width="2" id="svg_1" d="m107.67129,76.62538l0,-23.37977l-0.00713,0c-0.00713,-28.8576 -20.22191,-52.24562 -45.16418,-52.24562s-45.16418,23.39627 -45.16418,52.25387l0,0l0,23.37152l-16.33583,0l0,100.37461l123.00001,0l0,-100.37461l-16.3287,0zm-76.06748,-23.37152c0,0 0,0 0,0c0,-19.71688 13.86157,-35.75438 30.89618,-35.75438c17.04887,0 30.91044,16.0375 30.91044,35.74613c0,0 0,0 0,0l0,23.37977l-61.80661,0l0,-23.37152z" stroke="#000" fill="#5e17eb"/>
  <path stroke="#000" stroke-width="0" id="svg_4" d="m43.5,118.00001l0,0c0,-10.49341 8.50659,-18.99999 19,-18.99999l0,0c5.03911,0 9.87183,2.00178 13.43503,5.56497c3.56319,3.56319 5.56497,8.39591 5.56497,13.43503l0,0c0,10.49341 -8.50659,18.99999 -19,18.99999l0,0c-10.49341,0 -19,-8.50659 -19,-18.99999zm19,-18.99999l0,37.99999m-19,-18.99999l38,0" fill="#000000"/>
  <path transform="rotate(90 62.5 140.211)" stroke="#000" id="svg_6" d="m46.56134,128.71061l31.87732,0l0,0c4.17602,0 7.56134,5.14873 7.56134,11.5c0,6.35127 -3.38533,11.5 -7.56134,11.5l-31.87732,0l0,0c-4.17601,0 -7.56134,-5.14873 -7.56134,-11.5c0,-6.35128 3.38533,-11.5 7.56134,-11.5z" stroke-width="0" fill="#000000"/>
  <text style="cursor: move;" font-weight="bold" xml:space="preserve" text-anchor="start" font-family="sans-serif" font-size="97" id="svg_9" y="177.5" x="106.86719" stroke="#000" fill="#ffffff">T</text>
 </g>
</svg>