<?xml version="1.0" standalone="no"?>
<!DOCTYPE svg PUBLIC "-//W3C//DTD SVG 20010904//EN"
 "http://www.w3.org/TR/2001/REC-SVG-20010904/DTD/svg10.dtd">
<svg version="1.0" xmlns="http://www.w3.org/2000/svg"
 width="249.000000pt" height="75.000000pt" viewBox="0 0 249.000000 75.000000"
 preserveAspectRatio="xMidYMid meet">

<g transform="translate(0.000000,75.000000) scale(0.100000,-0.100000)"
fill="#000000" stroke="none">
<path d="M462 660 c-65 -15 -112 -86 -112 -169 0 -23 -4 -31 -18 -31 -11 0
-26 -8 -35 -18 -14 -16 -17 -43 -17 -165 0 -198 -13 -187 213 -187 232 0 217
-13 217 184 0 135 -2 155 -18 169 -10 10 -25 17 -34 17 -11 0 -17 14 -21 50
-14 115 -80 172 -175 150z m80 -51 c25 -13 48 -68 48 -114 l0 -35 -95 0 -95 0
0 35 c0 45 23 100 47 114 24 14 69 14 95 0z m-13 -255 c19 -14 22 -22 16 -48
-4 -17 -8 -52 -9 -78 l-1 -48 -37 0 -38 0 6 43 c5 32 2 46 -10 56 -22 18 -20
47 4 71 24 24 38 25 69 4z"/>
</g>
</svg>
